<?xml version="1.0" encoding="UTF-8"?>
<svg viewBox="0 0 720 584" xmlns="http://www.w3.org/2000/svg" role="img" aria-labelledby="toolkit-add-role-title toolkit-add-role-desc" id="toolkit-add-role-root">
        <title id="toolkit-add-role-title">How /add-buyer and /add-seller work</title>
        <desc id="toolkit-add-role-desc">Flowchart: reuse an existing organization or create one, then either edit the existing role or complete the form to add a new role in Attio.</desc>
        <defs>
      <style>#toolkit-add-role-root { font-family: 'Geist', system-ui, -apple-system, 'Segoe UI', sans-serif; color: #2d3142; }
      #toolkit-add-role-root .diagram-container { width: 100%; overflow-x: auto; }
      #toolkit-add-role-root .diagram-container { overflow-x: visible; }</style>
          <marker id="toolkit-add-role-arrow" markerWidth="8" markerHeight="6" refX="7" refY="3" orient="auto"><polygon points="0 0, 8 3, 0 6" fill="#4f5d75"/></marker>
          <marker id="toolkit-add-role-arrow-accent" markerWidth="8" markerHeight="6" refX="7" refY="3" orient="auto"><polygon points="0 0, 8 3, 0 6" fill="#bf4520"/></marker>
          <marker id="toolkit-add-role-arrow-link" markerWidth="8" markerHeight="6" refX="7" refY="3" orient="auto"><polygon points="0 0, 8 3, 0 6" fill="#2e5aa8"/></marker>
        </defs>
        <rect width="100%" height="100%" fill="#f5f5f5"/>
<line x1="260" y1="64" x2="260" y2="96" stroke="#4f5d75" stroke-width="1.2" marker-end="url(#toolkit-add-role-arrow)"/>
<line x1="356" y1="136" x2="440" y2="136" stroke="#4f5d75" stroke-width="1.2" marker-end="url(#toolkit-add-role-arrow)"/>
<path d="M 548 160 L 548 204 Q 548 212 540 212 L 266 212" fill="none" stroke="#4f5d75" stroke-width="1.2" marker-end="url(#toolkit-add-role-arrow)"/>
<line x1="260" y1="176" x2="260" y2="208" stroke="#4f5d75" stroke-width="1.2" marker-end="url(#toolkit-add-role-arrow)"/>
<line x1="260" y1="216" x2="260" y2="248" stroke="#4f5d75" stroke-width="1.2" marker-end="url(#toolkit-add-role-arrow)"/>
<line x1="356" y1="288" x2="440" y2="288" stroke="#4f5d75" stroke-width="1.2" marker-end="url(#toolkit-add-role-arrow)"/>
<line x1="260" y1="328" x2="260" y2="360" stroke="#4f5d75" stroke-width="1.2" marker-end="url(#toolkit-add-role-arrow)"/>
<line x1="260" y1="408" x2="260" y2="440" stroke="#bf4520" stroke-width="1.4" marker-end="url(#toolkit-add-role-arrow-accent)"/>
<rect x="386" y="116" width="24" height="12" rx="2" fill="#f5f5f5"/>
<text x="398" y="125" fill="#5a6580" font-size="8" font-family="'Geist Mono', ui-monospace, Menlo, monospace" text-anchor="middle" letter-spacing="0.08em">NO</text>
<rect x="268" y="186" width="28" height="12" rx="2" fill="#f5f5f5"/>
<text x="282" y="195" fill="#5a6580" font-size="8" font-family="'Geist Mono', ui-monospace, Menlo, monospace" text-anchor="middle" letter-spacing="0.08em">YES</text>
<rect x="384" y="268" width="28" height="12" rx="2" fill="#f5f5f5"/>
<text x="398" y="277" fill="#5a6580" font-size="8" font-family="'Geist Mono', ui-monospace, Menlo, monospace" text-anchor="middle" letter-spacing="0.08em">YES</text>
<rect x="268" y="338" width="24" height="12" rx="2" fill="#f5f5f5"/>
<text x="280" y="347" fill="#5a6580" font-size="8" font-family="'Geist Mono', ui-monospace, Menlo, monospace" text-anchor="middle" letter-spacing="0.08em">NO</text>
<rect x="136" y="24" width="248" height="40" rx="20" fill="#f5f5f5"/>
<rect x="136" y="24" width="248" height="40" rx="20" fill="#2d3142" fill-opacity="0.03" stroke="#2d3142" stroke-opacity="0.30" stroke-width="1"/>
<text x="260" y="48" fill="#2d3142" font-size="12" font-weight="600" font-family="'Geist', system-ui, -apple-system, 'Segoe UI', sans-serif" text-anchor="middle">/add-buyer or /add-seller</text>
<polygon points="260,96 356,136 260,176 164,136" fill="#ffffff" stroke="#2d3142" stroke-width="1"/>
<text x="260" y="133" fill="#2d3142" font-size="12" font-weight="600" font-family="'Geist', system-ui, -apple-system, 'Segoe UI', sans-serif" text-anchor="middle">Organization</text>
<text x="260" y="147" fill="#2d3142" font-size="12" font-weight="600" font-family="'Geist', system-ui, -apple-system, 'Segoe UI', sans-serif" text-anchor="middle">already in Attio?</text>
<rect x="440" y="112" width="216" height="48" rx="6" fill="#ffffff" stroke="#2d3142" stroke-width="1"/>
<text x="548" y="133" fill="#2d3142" font-size="12" font-weight="600" font-family="'Geist', system-ui, -apple-system, 'Segoe UI', sans-serif" text-anchor="middle">Create organization</text>
<text x="548" y="147" fill="#4f5d75" font-size="9" font-family="'Geist Mono', ui-monospace, Menlo, monospace" text-anchor="middle">a name is enough</text>
<circle cx="260" cy="212" r="4" fill="#2d3142"/>
<polygon points="260,248 356,288 260,328 164,288" fill="#ffffff" stroke="#2d3142" stroke-width="1"/>
<text x="260" y="285" fill="#2d3142" font-size="12" font-weight="600" font-family="'Geist', system-ui, -apple-system, 'Segoe UI', sans-serif" text-anchor="middle">Role exists for</text>
<text x="260" y="299" fill="#2d3142" font-size="12" font-weight="600" font-family="'Geist', system-ui, -apple-system, 'Segoe UI', sans-serif" text-anchor="middle">this vertical?</text>
<rect x="440" y="264" width="216" height="48" rx="6" fill="#ffffff" stroke="#2d3142" stroke-width="1"/>
<text x="548" y="285" fill="#2d3142" font-size="12" font-weight="600" font-family="'Geist', system-ui, -apple-system, 'Segoe UI', sans-serif" text-anchor="middle">Edit that role</text>
<text x="548" y="299" fill="#4f5d75" font-size="9" font-family="'Geist Mono', ui-monospace, Menlo, monospace" text-anchor="middle">same form as /edit-*</text>
<rect x="152" y="360" width="216" height="48" rx="6" fill="#ffffff" stroke="#2d3142" stroke-width="1"/>
<text x="260" y="381" fill="#2d3142" font-size="12" font-weight="600" font-family="'Geist', system-ui, -apple-system, 'Segoe UI', sans-serif" text-anchor="middle">Complete the form</text>
<text x="260" y="395" fill="#4f5d75" font-size="9" font-family="'Geist Mono', ui-monospace, Menlo, monospace" text-anchor="middle">check duplicates · Save</text>
<rect x="152" y="440" width="216" height="56" rx="20" fill="#f5f5f5"/>
<rect x="152" y="440" width="216" height="56" rx="20" fill="#bf4520" fill-opacity="0.08" stroke="#bf4520" stroke-width="1"/>
<text x="260" y="465" fill="#2d3142" font-size="12" font-weight="600" font-family="'Geist', system-ui, -apple-system, 'Segoe UI', sans-serif" text-anchor="middle">Saved to Attio</text>
<text x="260" y="479" fill="#4f5d75" font-size="9" font-family="'Geist Mono', ui-monospace, Menlo, monospace" text-anchor="middle">organization + role</text>
<line x1="24" y1="528" x2="696" y2="528" stroke="#2d3142" stroke-opacity="0.10" stroke-width="0.8"/>
<text x="24" y="544" fill="#4f5d75" font-size="8" font-family="'Geist Mono', ui-monospace, Menlo, monospace" letter-spacing="0.18em">LEGEND</text>
<rect x="24" y="556" width="24" height="12" rx="6" fill="#2d3142" fill-opacity="0.03" stroke="#2d3142" stroke-opacity="0.30" stroke-width="1"/>
<text x="56" y="565" fill="#4f5d75" font-size="9" font-family="'Geist', system-ui, -apple-system, 'Segoe UI', sans-serif">Start / end</text>
<rect x="144" y="556" width="24" height="12" rx="2" fill="#ffffff" stroke="#2d3142" stroke-width="1"/>
<text x="176" y="565" fill="#4f5d75" font-size="9" font-family="'Geist', system-ui, -apple-system, 'Segoe UI', sans-serif">Step</text>
<polygon points="228,562 240,556 252,562 240,568" fill="#ffffff" stroke="#2d3142" stroke-width="1"/>
<text x="260" y="565" fill="#4f5d75" font-size="9" font-family="'Geist', system-ui, -apple-system, 'Segoe UI', sans-serif">Decision</text>
<circle cx="344" cy="562" r="4" fill="#2d3142"/>
<text x="364" y="565" fill="#4f5d75" font-size="9" font-family="'Geist', system-ui, -apple-system, 'Segoe UI', sans-serif">Paths rejoin</text>
<line x1="456" y1="562" x2="480" y2="562" stroke="#bf4520" stroke-width="1.4" marker-end="url(#toolkit-add-role-arrow-accent)"/>
<text x="488" y="565" fill="#4f5d75" font-size="9" font-family="'Geist', system-ui, -apple-system, 'Segoe UI', sans-serif">Main path</text>
      </svg>
